<svg xmlns="http://www.w3.org/2000/svg" viewBox="0 0 380 780" fill="none" font-family="&#39;JetBrains Mono&#39;, monospace">
  <rect x="2" y="2" width="376" height="776" fill="#000" stroke="#fff" stroke-width="2"></rect>
  <text x="24" y="36" fill="#fff" font-size="14" font-weight="700">9:41</text>
  <rect x="316" y="24" width="18" height="12" fill="#fff"></rect>
  <rect x="340" y="24" width="20" height="12" fill="#fff" opacity="0.7"></rect>

  <text x="24" y="92" fill="#fff" font-size="22" font-weight="700" letter-spacing="-0.5">UNINSTALL</text>
  <text x="24" y="116" fill="#00FF66" font-size="11" font-weight="500">&gt; ROUTINE SHIELD ACTIVE</text>

  
  <rect x="20" y="148" width="340" height="220" fill="#000" stroke="#00FF66" stroke-width="2"></rect>
  <text x="36" y="178" fill="#6B7280" font-size="11" font-weight="500">&gt; TIME REMAINING</text>
  <text x="190" y="266" fill="#00FF66" font-size="64" font-weight="700" text-anchor="middle" letter-spacing="-3">04:18:42</text>
  <text x="190" y="306" fill="#6B7280" font-size="11" font-weight="500" text-anchor="middle">&gt; BLOCKING UNTIL 5:30 PM</text>

  
  <rect x="36" y="328" width="308" height="6" fill="#1f2937"></rect>
  <rect x="36" y="328" width="184" height="6" fill="#00FF66"></rect>
  <text x="36" y="354" fill="#6B7280" font-size="10" font-weight="500">&gt; 49% COMPLETE</text>

  
  <text x="24" y="402" fill="#6B7280" font-size="11" font-weight="500">&gt; BLOCKED APPS</text>

  <g font-size="12" font-weight="500">
    <rect x="20" y="418" width="340" height="44" fill="#000" stroke="#1f2937" stroke-width="1"></rect>
    <rect x="36" y="430" width="20" height="20" fill="#fff"></rect>
    <text x="72" y="445" fill="#fff">INSTAGRAM</text>
    <text x="344" y="445" fill="#FF3B30" font-size="11" font-weight="700" text-anchor="end">BLOCKED</text>

    <rect x="20" y="470" width="340" height="44" fill="#000" stroke="#1f2937" stroke-width="1"></rect>
    <rect x="36" y="482" width="20" height="20" fill="#fff"></rect>
    <text x="72" y="497" fill="#fff">TIKTOK</text>
    <text x="344" y="497" fill="#FF3B30" font-size="11" font-weight="700" text-anchor="end">BLOCKED</text>

    <rect x="20" y="522" width="340" height="44" fill="#000" stroke="#1f2937" stroke-width="1"></rect>
    <rect x="36" y="534" width="20" height="20" fill="#fff"></rect>
    <text x="72" y="549" fill="#fff">X</text>
    <text x="344" y="549" fill="#FF3B30" font-size="11" font-weight="700" text-anchor="end">BLOCKED</text>
  </g>

  
  <rect x="20" y="586" width="340" height="100" fill="#000" stroke="#FF3B30" stroke-width="1"></rect>
  <text x="36" y="614" fill="#FF3B30" font-size="11" font-weight="700">&gt; WALL</text>
  <text x="36" y="640" fill="#fff" font-size="11" font-weight="500">NO CANCEL. NO PAUSE. NO BYPASS.</text>
  <text x="36" y="660" fill="#6B7280" font-size="10" font-weight="500">ONLY EXIT. UNINSTALL UNINSTALL.</text>

  <text x="190" y="714" fill="#6B7280" font-size="10" font-weight="500" text-anchor="middle">&gt; 312H 20M RECLAIMED · 73 BLOCKS</text>

  <rect x="140" y="754" width="100" height="4" fill="#fff"></rect>
</svg>